<?xml version="1.0" encoding="UTF-8"?>
<!DOCTYPE svg PUBLIC "-//W3C//DTD SVG 1.1//EN" "http://www.w3.org/Graphics/SVG/1.1/DTD/svg11.dtd">
<!-- Creator: CorelDRAW -->
<svg xmlns="http://www.w3.org/2000/svg" xml:space="preserve" width="2400px" height="3600px" style="shape-rendering:geometricPrecision; text-rendering:geometricPrecision; image-rendering:optimizeQuality; fill-rule:evenodd; clip-rule:evenodd"
viewBox="0 0 2400 3394.29"
 xmlns:xlink="http://www.w3.org/1999/xlink"
 enable-background="new 0 0 64 64">
 <defs>
  <style type="text/css">
   <![CDATA[
    .fil2 {fill:none}
    .fil0 {fill:#DA251D}
    .fil1 {fill:#E77817}
    .fil3 {fill:white}
    .fil4 {fill:white;fill-rule:nonzero}
   ]]>
  </style>
    <clipPath id="id0">
     <path d="M231.144 937.966l1272.19 -413.358c174.403,-56.6674 363.457,39.6594 420.123,214.063l403.362 1241.43c56.6686,174.401 -39.6594,363.455 -214.063,420.121l-1272.19 413.359c-174.402,56.6663 -363.455,-39.6606 -420.121,-214.063l-403.365 -1241.43c-56.6663,-174.402 39.6606,-363.455 214.063,-420.121z"/>
    </clipPath>
 </defs>
 <g id="Layer_x0020_1">
  <metadata id="CorelCorpID_0Corel-Layer"/>
  <g id="_58114016">
   <path id="_58113680" class="fil0" d="M231.144 937.966l1272.19 -413.358c174.403,-56.6674 363.457,39.6594 420.123,214.063l403.362 1241.43c56.6686,174.401 -39.6594,363.455 -214.063,420.121l-1272.19 413.359c-174.402,56.6663 -363.455,-39.6606 -420.121,-214.063l-403.365 -1241.43c-56.6663,-174.402 39.6606,-363.455 214.063,-420.121z"/>
   <g style="clip-path:url(#id0)">
    <g>
     <path id="_581149281" class="fil1" d="M-67.8754 2456.49c75.6994,6.11657 590.823,-494.655 840.105,-666.095 459.913,-316.301 824.601,-284.136 1357.06,-379.511 216.414,-38.7634 441.297,-210.954 421.577,-290.544 -19.7189,-79.5897 -67.7589,-321.971 -119.147,-366.701 -51.3897,-44.7291 -297.784,-198.09 -417.65,-226.712 -119.867,-28.6217 -531.138,-122.269 -592.255,-102.411 -61.1166,19.8583 -937.31,329.121 -937.31,329.121l-1089.74 389.266 537.357 1313.59z"/>
    </g>
   </g>
   <path class="fil2" d="M231.144 937.966l1272.19 -413.358c174.403,-56.6674 363.457,39.6594 420.123,214.063l403.362 1241.43c56.6686,174.401 -39.6594,363.455 -214.063,420.121l-1272.19 413.359c-174.402,56.6663 -363.455,-39.6606 -420.121,-214.063l-403.365 -1241.43c-56.6663,-174.402 39.6606,-363.455 214.063,-420.121z"/>
   <path id="_58113752" class="fil3" d="M816.127 1977.88c-282.623,204.544 -407.944,-201.648 -317.45,-551.458 68.8594,-266.179 360.086,-498.631 653.23,-425.699 25.2411,6.28 -9.67657,135.386 -20.0434,204.002 -51.888,343.45 155.581,529.218 249.827,652.761 44.064,57.7577 65.384,145.223 51.0697,217.569 -28.8423,145.731 -129.938,254.062 -256.711,337.553 -474.103,312.245 -827.601,41.4926 -359.922,-434.728zm-73.5817 372.438c-41.4103,-125.973 116.632,-387.419 337.971,-588.345 118.857,67.3897 181.336,189.991 186.475,310.257 2.15771,50.4594 -5.784,100.512 -23.8891,145.901 -40.9314,102.613 -130.254,156.403 -232.568,189.957 -112.362,36.8514 -236.307,38.624 -267.99,-57.7691zm252.872 -1228.67c-42.9246,413.129 107.336,542.313 -48.5486,670.737 -40.2103,33.1257 -98.4754,72.0629 -152.291,69.9074 -183.281,-7.34171 -279.526,-429.187 -71.5771,-636.783 57.0846,-56.9909 143.928,-97.6994 221.971,-116.677 29.8354,-7.25486 52.4754,-6.72914 50.4457,12.8149z"/>
   <path id="_58113824" class="fil4" d="M1691.37 1050.55c-60.216,154.187 -188.678,286.859 -306.722,398.271 96.1589,188.214 238.186,213.769 350.042,-4.06171 30.2754,-58.9554 105.185,-339.574 105.185,-339.574 -21.5771,1154.63 -878.36,648.73 -625.321,-54.4103 98.0834,-272.557 624.578,-378.581 476.816,-0.225143zm-262.099 -100.461c-33.0549,5.54743 -58.6046,22.8686 -79.2971,46.7497 -94.4023,108.943 -46.3989,275.307 4.99543,393.769 37.3223,-48.0709 243.35,-277.977 173.221,-399.329 -15.4091,-26.664 -42.848,-44.4263 -98.9189,-41.1897z"/>
  </g>
 </g>
</svg>
