<?xml version="1.0" encoding="UTF-8"?>
<!DOCTYPE svg PUBLIC "-//W3C//DTD SVG 1.1//EN" "http://www.w3.org/Graphics/SVG/1.1/DTD/svg11.dtd">
<!-- Creator: CorelDRAW -->
<svg xmlns="http://www.w3.org/2000/svg" xml:space="preserve" width="210mm" height="297mm" style="shape-rendering:geometricPrecision; text-rendering:geometricPrecision; image-rendering:optimizeQuality; fill-rule:evenodd; clip-rule:evenodd"
viewBox="0 0 210 297"
 xmlns:xlink="http://www.w3.org/1999/xlink">
 <defs>
  <style type="text/css">
   <![CDATA[
    .fil1 {fill:none}
    .fil2 {fill:none;fill-rule:nonzero}
    .fil0 {fill:white}
   ]]>
  </style>
 </defs>
 <g id="Layer_x0020_1">
  <metadata id="CorelCorpID_0Corel-Layer"/>
  <path class="fil0" d="M80.947 158.686c-18.4071,5.9434 -18.056,-17.6222 -7.291,-34.5172 8.1914,-12.8558 27.5303,-20.1234 41.7382,-11.2553 1.2234,0.7636 -2.8298,6.9731 -4.552,10.4136 -8.6204,17.2211 -0.8634,30.5712 1.9896,38.7003 1.3339,3.8005 0.9596,8.7778 -1.0347,12.3474 -4.0177,7.1902 -11.2045,11.1704 -19.3196,13.4009 -30.3491,8.3418 -44.3502,-11.9914 -11.5305,-29.0897z"/>
  <path class="fil1" d="M105.071 116.608c-9.3415,21.0488 -3.6316,30.4351 -14.0517,34.5361 -2.6878,1.0578 -6.4272,2.1127 -9.228,1.077 -9.5386,-3.5273 -7.3861,-27.4201 7.1357,-34.8038 3.9865,-2.0271 9.2632,-2.6858 13.7036,-2.3493 1.6975,0.1286 2.8823,0.5442 2.4404,1.54z"/>
  <path class="fil2" d="M142.986 124.784c-5.8169,7.0986 -14.8637,11.8935 -22.997,15.7457 1.8458,11.572 8.897,15.3529 18.5273,5.7831 2.6065,-2.59 11.3643,-16.1035 11.3643,-16.1035 -20.9201,60.514 -57.4305,19.1585 -32.0409,-13.5827 9.8416,-12.6914 39.4201,-9.2616 25.1463,8.1574zm-12.0993 -9.7878c-1.838,-0.2738 -3.482,0.2018 -4.9823,1.1065 -6.8443,4.1272 -7.1634,13.722 -6.483,20.849 2.7916,-1.8953 17.5944,-10.4884 15.9756,-18.0888 -0.3557,-1.67 -1.4982,-3.0767 -4.5103,-3.8667z"/>
  <path class="fil1" d="M70.6861 177.064c-0.0253,-7.352 12.7876,-18.4303 27.9013,-25.2329 5.1127,5.5898 6.3067,13.125 4.5172,19.5547 -0.7508,2.6977 -2.0271,5.2009 -3.7594,7.284 -3.9164,4.7095 -9.5479,6.0155 -15.5178,6.0318 -6.5562,0.0181 -13.1222,-2.012 -13.1413,-7.6376z"/>
 </g>
</svg>
