<?xml version="1.0" encoding="UTF-8"?>
<!DOCTYPE svg PUBLIC "-//W3C//DTD SVG 1.1//EN" "http://www.w3.org/Graphics/SVG/1.1/DTD/svg11.dtd">
<!-- Creator: CorelDRAW -->
<svg xmlns="http://www.w3.org/2000/svg" xml:space="preserve" width="600px" height="600px" style="shape-rendering:geometricPrecision; text-rendering:geometricPrecision; image-rendering:optimizeQuality; fill-rule:evenodd; clip-rule:evenodd"
viewBox="0 0 600 600"
 xmlns:xlink="http://www.w3.org/1999/xlink">
 <defs>
  <style type="text/css">
   <![CDATA[
    .fil2 {fill:none}
    .fil0 {fill:#DA251D}
    .fil1 {fill:#E77817}
    .fil3 {fill:white}
    .fil4 {fill:white;fill-rule:nonzero}
   ]]>
  </style>
   <clipPath id="id0">
    <path d="M66.2008 118.319l316.147 -102.72c43.35,-14.0823 90.3331,9.84685 104.4,53.1921l100.252 308.494c14.0657,43.3417 -9.88228,90.3283 -53.2004,104.395l-316.147 102.72c-43.3535,14.0823 -90.3331,-9.84685 -104.4,-53.1921l-100.252 -308.496c-14.0657,-43.3441 9.88228,-90.3331 53.2004,-104.394z"/>
   </clipPath>
 </defs>
 <g id="Layer_x0020_1">
  <metadata id="CorelCorpID_0Corel-Layer"/>
  <path class="fil0" d="M66.2008 118.319l316.147 -102.72c43.35,-14.0823 90.3331,9.84685 104.4,53.1921l100.252 308.494c14.0657,43.3417 -9.88228,90.3283 -53.2004,104.395l-316.147 102.72c-43.3535,14.0823 -90.3331,-9.84685 -104.4,-53.1921l-100.252 -308.496c-14.0657,-43.3441 9.88228,-90.3331 53.2004,-104.394z"/>
  <g style="clip-path:url(#id0)">
   <g id="_257994712">
    <path id="_2579945201" class="fil1" d="M-8.09882 495.67c18.8114,1.52008 146.82,-122.922 208.767,-165.526 114.289,-78.6012 204.915,-70.6075 337.233,-94.3087 53.7791,-9.63307 109.663,-52.422 104.763,-72.2008 -4.90039,-19.7776 -16.839,-80.0102 -29.6091,-91.1256 -12.7701,-11.1154 -73.9996,-49.226 -103.787,-56.3386 -29.7862,-7.1126 -131.988,-30.3839 -147.176,-25.4492 -15.1878,4.93465 -232.923,81.7878 -232.923,81.7878l-270.802 96.7335 133.534 326.427z"/>
   </g>
  </g>
  <path class="fil2" d="M66.2008 118.319l316.147 -102.72c43.35,-14.0823 90.3331,9.84685 104.4,53.1921l100.252 308.494c14.0657,43.3417 -9.88228,90.3283 -53.2004,104.395l-316.147 102.72c-43.3535,14.0823 -90.3331,-9.84685 -104.4,-53.1921l-100.252 -308.496c-14.0657,-43.3441 9.88228,-90.3331 53.2004,-104.394z"/>
  <path class="fil3" d="M211.577 376.734c-70.2319,50.8287 -101.374,-50.1106 -78.887,-137.039 17.1118,-66.1453 89.4827,-123.911 162.328,-105.787 6.27283,1.56024 -2.40354,33.6437 -4.97953,50.6941 -12.8953,85.3488 38.661,131.512 62.0823,162.213 10.9488,14.3528 16.2472,36.0886 12.6909,54.0661 -7.16811,36.215 -32.2902,63.1346 -63.7937,83.8831 -117.815,77.5925 -205.659,10.311 -89.4413,-108.031zm-18.2846 92.5512c-10.2909,-31.3039 28.9831,-96.274 83.9858,-146.205 29.537,16.7469 45.0626,47.2134 46.3394,77.1 0.53622,12.5386 -1.4374,24.9768 -5.93622,36.2563 -10.1717,25.4988 -32.3681,38.8665 -57.7937,47.2039 -27.9213,9.15827 -58.722,9.59882 -66.5953,-14.3551zm62.8382 -305.327c-10.6665,102.663 26.674,134.765 -12.0638,166.678 -9.99213,8.23228 -24.4713,17.9079 -37.8449,17.3728 -45.5457,-1.8248 -69.4618,-106.654 -17.7874,-158.242 14.1862,-14.1626 35.7673,-24.2787 55.161,-28.9949 7.41378,-1.80236 13.0406,-1.67244 12.535,3.18543z"/>
  <path class="fil4" d="M429.076 146.293c-14.9634,38.315 -46.8862,71.2854 -76.2213,98.9705 23.8961,46.7717 59.1898,53.1224 86.9858,-1.00866 7.52362,-14.6516 26.139,-84.385 26.139,-84.385 -5.3622,286.929 -218.274,161.21 -155.393,-13.5213 24.3732,-67.7303 155.209,-94.0772 118.489,-0.0555118zm-65.1319 -24.965c-8.21457,1.37835 -14.5642,5.68346 -19.7055,11.6173 -23.4591,27.0732 -11.5299,68.4142 1.24134,97.852 9.27402,-11.9457 60.4724,-69.078 43.0453,-99.2339 -3.82913,-6.62598 -10.6476,-11.0398 -24.5811,-10.2354z"/>
 </g>
</svg>
