<?xml version="1.0" encoding="UTF-8"?>
<!DOCTYPE svg PUBLIC "-//W3C//DTD SVG 1.0//EN" "http://www.w3.org/TR/2001/REC-SVG-20010904/DTD/svg10.dtd">
<svg xmlns="http://www.w3.org/2000/svg" xml:space="preserve" width="1313px" height="1291px" version="1.0" style="shape-rendering:geometricPrecision; text-rendering:geometricPrecision; image-rendering:optimizeQuality; fill-rule:evenodd; clip-rule:evenodd"
viewBox="0 0 1313 1292"
 xmlns:xlink="http://www.w3.org/1999/xlink">
 <defs>
  <style type="text/css">
   <![CDATA[
    .fil0 {fill:none}
    .fil1 {fill:#FEFEFE}
    .fil2 {fill:#FEFEFE;fill-rule:nonzero}
   ]]>
  </style>
    <clipPath id="id0">
     <path d="M218 0l877 0c120,0 218,98 218,218l0 855c0,121 -98,219 -218,219l-877 0c-120,0 -218,-98 -218,-219l0 -855c0,-120 98,-218 218,-218z"/>
    </clipPath>
 </defs>
 <g id="Layer_x0020_1">
  <metadata id="CorelCorpID_0Corel-Layer"/>
  <g id="_272553520">
   <g>
   </g>
   <g style="clip-path:url(#id0)">
    <g id="_272439320">
     <path class="fil0" d="M-275 885c46,20 468,-188 658,-244 350,-104 571,-11 922,38 143,19 318,-42 322,-96 3,-53 23,-214 0,-252 -23,-39 -146,-184 -215,-226 -69,-42 -306,-184 -348,-184 -42,0 -650,15 -650,15l-758 22 69 927z"/>
    </g>
   </g>
   <path class="fil0" d="M218 0l877 0c120,0 218,98 218,218l0 855c0,121 -98,219 -218,219l-877 0c-120,0 -218,-98 -218,-219l0 -855c0,-120 98,-218 218,-218z"/>
   <path class="fil1" d="M372 766c-217,70 -213,-208 -86,-408 97,-151 325,-237 493,-133 15,9 -33,83 -53,124 -102,203 -11,361 23,457 16,45 11,103 -12,146 -48,85 -133,132 -228,158 -359,98 -524,-142 -137,-344zm-121 217c0,-86 151,-217 330,-298 60,66 74,155 53,231 -9,32 -24,62 -44,86 -47,56 -113,71 -184,72 -77,0 -155,-24 -155,-91zm406 -714c-110,249 -43,360 -166,408 -31,13 -76,25 -109,13 -112,-42 -87,-324 85,-411 47,-24 109,-32 162,-28 20,1 34,6 28,18z"/>
   <path class="fil2" d="M1105 366c-68,84 -175,140 -271,186 21,136 105,181 218,68 31,-31 135,-190 135,-190 -247,715 -679,226 -379,-161 116,-150 466,-109 297,97zm-143 -116c-21,-3 -41,2 -59,13 -80,49 -84,162 -76,246 33,-22 208,-123 189,-213 -5,-20 -18,-37 -54,-46z"/>
  </g>
 </g>
</svg>
