<?xml version="1.0" encoding="UTF-8"?>
<!DOCTYPE svg PUBLIC "-//W3C//DTD SVG 1.0//EN" "http://www.w3.org/TR/2001/REC-SVG-20010904/DTD/svg10.dtd">
<!-- Creator: CorelDRAW X7 -->
<svg xmlns="http://www.w3.org/2000/svg" xml:space="preserve" width="4843px" height="4677px" version="1.0" style="shape-rendering:geometricPrecision; text-rendering:geometricPrecision; image-rendering:optimizeQuality; fill-rule:evenodd; clip-rule:evenodd"
viewBox="0 0 4843 4678"
 xmlns:xlink="http://www.w3.org/1999/xlink">
 <defs>
  <style type="text/css">
   <![CDATA[
    .fil0 {fill:#FEFEFE}
    .fil1 {fill:#FEFEFE;fill-rule:nonzero}
   ]]>
  </style>
 </defs>
 <g id="Layer_x0020_1">
  <metadata id="CorelCorpID_0Corel-Layer"/>
  <g id="_273741168">
   <path class="fil0" d="M1142 2821c-941,308 -923,-911 -373,-1784 419,-665 1407,-1041 2133,-582 63,39 -144,360 -232,538 -441,891 -44,1581 102,2001 68,197 49,454 -53,638 -206,372 -573,578 -988,693 -1551,431 -2266,-620 -589,-1504zm-524 950c-2,-380 653,-952 1426,-1304 261,289 322,678 230,1011 -38,139 -103,269 -192,376 -200,244 -488,311 -793,312 -335,1 -670,-104 -671,-395zm1757 -3125c-478,1088 -186,1573 -718,1785 -138,55 -329,110 -472,56 -487,-182 -377,-1417 365,-1799 204,-105 473,-139 700,-122 87,7 147,29 125,80z"/>
   <path class="fil1" d="M4313 1069c-298,367 -760,615 -1176,814 95,598 455,793 947,299 133,-134 581,-833 581,-833 -1069,3129 -2935,991 -1638,-702 503,-656 2015,-479 1286,422zm-619 -506c-94,-15 -178,10 -254,57 -350,213 -366,709 -332,1078 143,-98 899,-543 817,-935 -18,-87 -77,-160 -231,-200z"/>
  </g>
 </g>
</svg>
