<?xml version="1.0" encoding="UTF-8"?>
<!DOCTYPE svg PUBLIC "-//W3C//DTD SVG 1.0//EN" "http://www.w3.org/TR/2001/REC-SVG-20010904/DTD/svg10.dtd">
<!-- Creator: CorelDRAW X7 -->
<svg xmlns="http://www.w3.org/2000/svg" xml:space="preserve" width="4843px" height="4677px" version="1.0" style="shape-rendering:geometricPrecision; text-rendering:geometricPrecision; image-rendering:optimizeQuality; fill-rule:evenodd; clip-rule:evenodd"
viewBox="0 0 4843 4678"
 xmlns:xlink="http://www.w3.org/1999/xlink">
 <defs>
  <style type="text/css">
   <![CDATA[
    .fil0 {fill:#FEFEFE}
    .fil1 {fill:#FEFEFE;fill-rule:nonzero}
   ]]>
  </style>
 </defs>
 <g id="Layer_x0020_1">
  <metadata id="CorelCorpID_0Corel-Layer"/>
  <g id="_272897000">
   <path class="fil0" d="M1065 2850c-997,326 -978,-965 -395,-1891 444,-705 1492,-1103 2261,-617 67,42 -153,382 -246,570 -467,944 -47,1676 108,2121 72,209 52,482 -57,677 -217,394 -607,612 -1046,735 -1644,457 -2403,-658 -625,-1595zm-556 1008c-1,-403 693,-1011 1512,-1383 277,306 341,719 245,1071 -41,148 -110,285 -204,400 -212,258 -517,329 -841,330 -355,1 -711,-110 -712,-418zm1863 -3314c-506,1154 -197,1668 -761,1893 -146,58 -348,116 -500,59 -517,-193 -400,-1503 386,-1907 216,-111 502,-148 743,-129 92,7 156,30 132,84z"/>
   <path class="fil1" d="M4426 992c-315,389 -805,652 -1246,863 100,634 482,842 1004,317 141,-142 616,-882 616,-882 -1134,3316 -3112,1050 -1736,-745 533,-695 2136,-507 1362,447zm-655 -536c-100,-15 -189,11 -270,61 -371,226 -388,752 -351,1142 151,-104 953,-575 865,-991 -19,-92 -81,-169 -244,-212z"/>
  </g>
 </g>
</svg>
